<?xml version="1.0" encoding="utf-8"?>
<!-- Generator: Adobe Illustrator 26.3.1, SVG Export Plug-In . SVG Version: 6.00 Build 0)  -->
<svg version="1.1" id="Layer_1" xmlns="http://www.w3.org/2000/svg" xmlns:xlink="http://www.w3.org/1999/xlink" x="0px" y="0px"
	 viewBox="0 0 253 82.26" style="enable-background:new 0 0 253 82.26;" xml:space="preserve">
<style type="text/css">
	.st0{enable-background:new    ;}
	.st1{fill:#2B3053;}
	.st2{fill:#D8394F;}
	.st3{fill:#A6A9D6;}
	.st4{fill:#4A3C90;}
	.st5{fill:#FDC50E;}
</style>
<g>
	<g class="st0">
		<path class="st1" d="M73.41,24.1h-7.64v40.25h-6.9V24.1h-7.64v-6.13h22.2v6.13H73.41z"/>
		<path class="st1" d="M100.33,60.11c0,2.83-1.41,4.24-4.21,4.24H81.06c-2.75,0-4.12-1.41-4.12-4.24V22.23
			c0-2.84,1.37-4.27,4.12-4.27h15.06c2.81,0,4.21,1.42,4.21,4.27V60.11z M93.39,58.39V23.92h-9.51V58.4h9.51V58.39z"/>
		<path class="st1" d="M129.02,55.61c0,2.73-0.81,4.86-2.44,6.42c-1.62,1.55-3.8,2.33-6.55,2.33h-14.14v-46.4h14.14
			c2.75,0,4.93,0.79,6.55,2.36c1.62,1.57,2.44,3.72,2.44,6.44V55.61z M122.06,54.45V27.8c0-2.59-1.35-3.88-4.06-3.88h-5.16V58.4
			h4.98C120.65,58.39,122.06,57.09,122.06,54.45z"/>
		<path class="st1" d="M157.79,60.11c0,2.83-1.4,4.24-4.21,4.24h-15.06c-2.75,0-4.12-1.41-4.12-4.24V22.23
			c0-2.84,1.37-4.27,4.12-4.27h15.06c2.81,0,4.21,1.42,4.21,4.27V60.11z M150.85,58.39V23.92h-9.51V58.4h9.51V58.39z"/>
		<path class="st2" d="M199.38,64.35h-6.88l-1.4-8.8h-8.68l-1.4,8.8h-6.85v-0.12l8.98-46.34h7.3L199.38,64.35z M190.13,49.59
			l-3.38-20.92l-3.41,20.92H190.13z"/>
		<path class="st2" d="M225.67,43.22c0,2.89-1.41,4.33-4.24,4.33H210.2v16.81h-6.94v-46.4h18.17c2.83,0,4.24,1.42,4.24,4.27
			L225.67,43.22L225.67,43.22z M218.67,41.59V23.92h-8.48v17.67H218.67z"/>
		<path class="st2" d="M253,43.22c0,2.89-1.41,4.33-4.24,4.33h-11.24v16.81h-6.94v-46.4h18.17c2.83,0,4.24,1.42,4.24,4.27L253,43.22
			L253,43.22z M246,41.59V23.92h-8.48v17.67H246z"/>
	</g>
	<g id="Plant_25">
		<g id="Tree_4_">
			<path class="st3" d="M15.28,22.82c0.02,0.01,0.05,0.02,0.07,0.05c0.07,0.07,0.06,0.16,0.06,0.26c-0.09,0.79-0.03,0.61-0.46,1.52
				c0.41-0.52,0.3-0.45,0.84-0.85c0.1-0.08,0.22-0.15,0.36-0.17c0.91-0.12-0.49,1.39-0.69,1.55c-0.76,0.58-1.76,0.43-2.56-0.18
				c-0.7-0.54-1.27-1.35-1.29-2.15c0-0.07,0.01-0.15,0.08-0.18c0.05-0.02,0.11,0,0.16,0.02c0.48,0.17,0.85,0.55,1.12,0.95
				c0.27,0.4,0.45,0.84,0.69,1.25c0.17,0.3,0.71,0.48,1.03,0.64c0.55,0.28,0.85,0.16,1.44,0.09c0.13-0.01,0.27-0.02,0.39,0.03
				s0.23,0.16,0.21,0.28c-0.01,0.07-0.06,0.12-0.11,0.17c-0.68,0.59-1.76,0.08-2.02-0.68c-0.26-0.74-0.21-1.79,0.27-2.38
				C14.96,22.88,15.14,22.77,15.28,22.82z"/>
			<path class="st2" d="M2.01,39.8c0.93-0.85,2.28-1.19,3.47-1.74c1.19-0.53,2.34-1.42,2.36-2.66c0.03-2.05-2.98-3.66-2.89-5.7
				c0.09-2.34,3.86-2.7,5.14-4.65c0.73-1.11,0.51-2.6-0.08-3.88c-0.6-1.28-1.54-2.43-2.31-3.65c-0.93-1.48-1.6-3.14-1.45-4.74
				s1.32-3.11,3.07-3.4c0.99-0.16,2.04,0.06,3.06,0.1c1.02,0.03,2.15-0.2,2.6-0.99c0.22-0.39,0.25-0.86,0.31-1.3
				c0.49-3.71,4.28-6.57,8.51-6.43c-0.43,0.82,0.74,1.85,1.78,1.84c1.04-0.01,1.86-0.65,2.57-1.28S29.66,0.05,30.7,0
				c0.83-0.04,1.66,0.32,2.44,0.67c0.6,0.28,1.29,0.65,1.37,1.24c0.04,0.25-0.04,0.48-0.12,0.69c-0.77,2-2.07,3.78-2.95,5.74
				c-0.88,1.96-1.31,4.27-0.28,6.34c0.61,1.25,1.73,2.34,2.03,3.65c0.49,2.07-1.14,3.85-2.73,5.24c-1.58,1.39-3.35,2.99-3.16,5.09
				c0.18,2.1,9.62,2.56,4.78,14.4c-1.17,2.87-4.38-1-4.6,2.08c-0.09,1.31-2.49-0.32-3.01,0.87c-0.16,0.38,1.17,2.61,0.95,2.96
				c-0.77,1.22-2.28,0.96-1.33,2.22c0.49,0.66,1.22,1.28,1.28,2.03c0.11,1.37-1.88,1.86-3.4,1.63c-1.28-0.18-0.69-4.2-1.89-3.74
				c-1.4,0.54-3.35,3.31-9.22,1.36c-2.43-0.81-1.95-7.86-4.07-7.04C1.9,47.34-2.79,44.17,2.01,39.8z"/>
			<g>
				
					<rect x="-19.53" y="44.67" transform="matrix(0.2784 -0.9605 0.9605 0.2784 -34.2625 44.0223)" class="st4" width="63.39" height="0.29"/>
			</g>
			<g>
				<path class="st4" d="M15.6,33.81l-0.13-0.26c0.63-0.32,6.24-3.07,7.17-2.97l-0.03,0.29C21.98,30.81,18.07,32.59,15.6,33.81z"/>
			</g>
			<g>
				<path class="st4" d="M17.24,26.44c-1.01-2.47-4.27-10.58-3.86-11.16c0.04-0.06,0.1-0.09,0.16-0.09v0.29
					c0.04,0,0.07-0.03,0.08-0.05c-0.19,0.54,2.29,6.98,3.89,10.91L17.24,26.44z"/>
			</g>
			<g>
				<path class="st4" d="M19.6,19.57l-0.16-0.25c0.21-0.14,5.29-3.5,5.8-3.77l0.13,0.26C24.89,16.08,19.65,19.53,19.6,19.57z"/>
			</g>
		</g>
		<g id="Tree_1_">
			<g>
				<path class="st5" d="M13.34,59.33c-0.07-0.4-0.12-0.84,0.05-1.21c0.61-1.33,2.74-0.3,4.06-0.9c1.39-0.63,1.27-2.63,0.82-4.1
					c-0.45-1.46-0.91-3.31,0.25-4.3c0.57-0.49,1.41-0.62,1.88-1.21c0.54-0.67,0.41-1.77,1.07-2.32c0.97-0.82,2.35,0.31,3.1,1.34
					c1.05-0.91,1.42-2.34,2.05-3.57c0.62-1.24,1.86-2.43,3.21-2.12c0.04,0.87-0.35,1.95,0.34,2.48c0.55,0.43,1.37,0.08,1.9-0.37
					c0.53-0.45,1.03-1.04,1.73-1.12c1.22-0.14,2.01,1.45,1.66,2.62s-1.35,2.02-2.15,2.94c-0.77,0.87-1.42,1.93-1.46,3.09
					c-0.03,1.16,0.74,2.4,1.89,2.56c0.41,0.06,0.91,0.01,1.16,0.35c0.13,0.18,0.14,0.43,0.12,0.64c-0.11,1.22-0.99,2.19-1.71,3.18
					c-0.71,0.99-1.31,2.28-0.8,3.39c0.23,0.51,0.69,0.93,0.78,1.49c0.18,1.19-1.35,1.87-2.55,1.99c-1.21,0.13-2.74,0.4-2.99,1.58
					c-0.13,0.61,0.17,1.26,0.03,1.87c-0.23,1.02-1.55,1.39-2.58,1.21c-1.84-0.34-2.9-0.7-4.79-0.49c-1.63,0.19-2.27,0.44-3.41-0.83
					C15.21,65.58,13.78,61.9,13.34,59.33z"/>
				<g>
					
						<rect x="1.8" y="67.56" transform="matrix(0.4886 -0.8725 0.8725 0.4886 -49.652 50.684)" class="st4" width="33.21" height="0.29"/>
				</g>
				<g>
					
						<rect x="19.97" y="63.25" transform="matrix(0.9507 -0.3101 0.3101 0.9507 -18.4922 10.4622)" class="st4" width="7.37" height="0.29"/>
				</g>
			</g>
			<g>
				
					<rect x="19.26" y="55.96" transform="matrix(0.091 -0.9959 0.9959 0.091 -34.8224 74.0597)" class="st4" width="7.79" height="0.29"/>
			</g>
		</g>
	</g>
</g>
</svg>
